PathFileType	4	(x/y/z)	S05_P20_T22
DataRate	CameraRate	NumFrames	NumMarkers	Units	OrigDataRate	OrigDataStartFrame	OrigNumFrames
240	240	4	50	mm	240	147	391
Frame#	Time	Sternum			R.Acromium			L.Acromium			Top.Head			R.ASIS			L.ASIS			R.PSIS			L.PSIS			R.Great.Tro			L.Great.Tro			R.Iliac.Crest			L.Iliac.Crest			V.Sacral			R.Thigh.Upper.Post			R.Thigh.Lower.Ant			R.Thigh.Lower.Post			R.Thigh.Upper.Ant			R.Knee.Lat			R.Knee.Med			R.Shank.Upper.Post			R.Shank.Lower.Ant			R.Shank.Lower.Post			R.Shank.Upper.Ant			R.Ankle.Lat			R.Ankle.Med			R.Heel.Upper			R.Heel.Med			R.Heel.Lat			R.Toe.Lat			R.Toe.Med			R.Toe.Tip			L.Thigh.Upper.Post			L.Thigh.Lower.Ant			L.Thigh.Lower.Post			L.Thigh.Upper.Ant			L.Knee.Lat			L.Shank.Upper.Post			L.Shank.Lower.Ant			L.Shank.Lower.Post			L.Shank.Upper.Ant			L.Ankle.Lat			L.Ankle.Med			L.Heel.Upper			L.Heel.Med			L.Heel.Lat			L.Toe.Lat			L.Toe.Med			L.Toe.Tip			Cervical.Spine			Back			
		X1	Y1	Z1	X2	Y2	Z2	X3	Y3	Z3	X4	Y4	Z4	X5	Y5	Z5	X6	Y6	Z6	X7	Y7	Z7	X8	Y8	Z8	X9	Y9	Z9	X10	Y10	Z10	X11	Y11	Z11	X12	Y12	Z12	X13	Y13	Z13	X14	Y14	Z14	X15	Y15	Z15	X16	Y16	Z16	X17	Y17	Z17	X18	Y18	Z18	X19	Y19	Z19	X20	Y20	Z20	X21	Y21	Z21	X22	Y22	Z22	X23	Y23	Z23	X24	Y24	Z24	X25	Y25	Z25	X26	Y26	Z26	X27	Y27	Z27	X28	Y28	Z28	X29	Y29	Z29	X30	Y30	Z30	X31	Y31	Z31	X32	Y32	Z32	X33	Y33	Z33	X34	Y34	Z34	X35	Y35	Z35	X36	Y36	Z36	X37	Y37	Z37	X38	Y38	Z38	X39	Y39	Z39	X40	Y40	Z40	X41	Y41	Z41	X42	Y42	Z42	X43	Y43	Z43	X44	Y44	Z44	X45	Y45	Z45	X46	Y46	Z46	X47	Y47	Z47	X48	Y48	Z48	X49	Y49	Z49	X50	Y50	Z50	

147	0.60833	-568.87	1239.1	323.64	-670.46	1498.9	487.62	-677.54	1525.8	163.97	-682.09	1806.9	330.73	-642.87	995.33	445.57	NaN	NaN	NaN	-847.17	1002	363.9	-845.16	1008.1	273.31	-717.34	910.17	510.41	-742.53	916.86	124.22	-742.62	1073.1	487.07	-737.41	1070.5	151.66	-857.32	969	330.39	-590.76	704.72	500.67	-524.2	652.91	440.93	-578.91	618.07	475.83	-540.68	737.79	464.58	-557.98	528.72	458.03	-551.33	516.85	325.54	-591.71	279.15	444	-519.89	224.59	444.5	-579.1	204.71	427.3	-531.93	300.48	459.35	-514.63	120.94	427.54	NaN	NaN	NaN	-579.67	70.739	364.4	-568.89	40.089	336.3	-566.62	41.362	400.38	-401.96	39.745	455.45	-366.87	57.439	341.66	-305.99	81.359	388	-774.95	682.09	129.53	-702.05	598.72	142.84	-774.01	587.14	141.92	-695.71	688.75	128.12	-787.3	497.52	146.18	-953.87	374.02	163.71	-939.55	288.61	161.71	-998.03	318.48	185.44	-896.19	344.53	146.51	-1059.4	191.79	198.87	-1009.8	181.69	278.49	-1124.8	183.07	259.77	-1124.8	157.86	293	-1142.1	159.97	233.61	-1011.2	52.887	160.75	-937.78	48.207	235.27	NaN	NaN	NaN	-726.08	1546.1	332.19	-839.91	1272.4	316.87
148	0.6125	-562.72	1239.9	324.3	-664.64	1499.4	488.6	-671.77	1526.5	164.96	-676.76	1807.4	331.62	-636.95	996.06	446.19	NaN	NaN	NaN	-841.38	1002.6	364.05	-839.25	1008.3	273.43	-711.72	910.87	510.85	-735.94	916.6	124.69	-736.92	1073.8	487.47	-731.46	1070.8	152.12	-851.49	969.41	330.62	-585.82	705.1	501.3	-519.24	653.12	441.75	-574.14	618.43	476.5	-535.57	738.07	465.4	-553.57	528.88	458.75	-546.94	517.08	326.31	-589.14	279.48	444.71	-517.78	224.34	444.85	-577.22	204.97	427.87	-529.13	300.3	459.88	-513.6	120.71	427.68	NaN	NaN	NaN	-579.18	71.058	364.5	-568.74	40.377	336.36	-566.29	41.545	400.43	-401.6	38.748	455.57	-366.4	56.179	341.66	-305.26	79.445	388.04	-765.74	681.28	129.28	-691.88	598.68	142.16	-763.77	586.27	141.27	-686.55	688.87	127.91	-776.13	496.99	145.22	-944.09	376.37	163.22	-930.72	290.51	161.27	-989.09	321.57	185.04	-887.05	346.01	145.83	-1053	196.41	198.62	-1003	185.08	277.93	-1117.5	190.1	259.69	-1118.3	165.07	293.04	-1135.7	167.56	233.67	-1009.1	55.51	160.69	-940.07	50.367	239.42	NaN	NaN	NaN	-720.32	1546.7	333.21	-834.02	1272.9	317.56
149	0.61667	-556.57	1240.7	324.94	-658.81	1500	489.55	-666.03	1527.2	165.94	-671.43	1807.9	332.5	-631.04	996.81	446.8	NaN	NaN	NaN	-835.63	1003.1	364.2	-833.37	1008.5	273.55	-706.1	911.6	511.29	-729.37	916.34	125.15	-731.23	1074.6	487.87	-725.54	1071.1	152.57	-845.69	969.85	330.86	-580.96	705.49	501.94	-514.37	653.31	442.59	-569.46	618.78	477.18	-530.53	738.34	466.25	-549.26	529.04	459.47	-542.66	517.3	327.07	-586.67	279.82	445.42	-515.76	224.11	445.18	-575.43	205.24	428.43	-526.42	300.13	460.4	-512.65	120.5	427.81	NaN	NaN	NaN	-578.73	71.339	364.59	-568.61	40.644	336.43	-565.96	41.698	400.48	-401.27	37.879	455.68	-365.98	55.043	341.64	-304.62	77.711	388.06	-756.4	680.47	129	-681.57	598.69	141.48	-753.35	585.43	140.62	-677.28	689.02	127.7	-764.72	496.49	144.27	-934	378.76	162.72	-921.59	292.49	160.85	-979.81	324.72	184.63	-877.64	347.54	145.16	-1046.2	201.14	198.38	-995.95	188.58	277.41	-1109.8	197.24	259.61	-1111.4	172.39	293.08	-1128.9	175.3	233.72	-1006.8	58.407	160.63	-942.02	52.758	243.56	NaN	NaN	NaN	-714.57	1547.3	334.22	-828.14	1273.5	318.26
150	0.62083	-550.44	1241.5	325.55	-652.96	1500.7	490.49	-660.31	1527.9	166.9	-666.11	1808.4	333.36	-625.14	997.57	447.4	NaN	NaN	NaN	-829.9	1003.7	364.35	-827.53	1008.7	273.67	-700.49	912.35	511.73	-722.84	916.08	125.61	-725.57	1075.4	488.26	-719.66	1071.4	153.01	-839.94	970.32	331.1	-576.18	705.87	502.61	-509.59	653.48	443.44	-564.89	619.13	477.86	-525.54	738.59	467.12	-545.05	529.19	460.18	-538.48	517.53	327.82	-584.29	280.17	446.1	-513.83	223.9	445.51	-573.72	205.52	428.97	-523.83	299.98	460.91	-511.77	120.32	427.91	NaN	NaN	NaN	-578.33	71.581	364.67	-568.52	40.888	336.49	-565.65	41.825	400.52	-400.98	37.126	455.79	-365.61	54.021	341.6	-304.06	76.146	388.06	-746.95	679.67	128.7	-671.12	598.76	140.82	-742.78	584.61	139.96	-667.91	689.22	127.47	-753.1	496.02	143.34	-923.61	381.19	162.19	-912.18	294.55	160.44	-970.23	327.92	184.21	-867.97	349.12	144.51	-1039	205.96	198.14	-988.58	192.2	276.92	-1101.7	204.46	259.53	-1104.2	179.8	293.11	-1121.7	183.15	233.75	-1004.1	61.578	160.55	-943.5	55.374	247.59	NaN	NaN	NaN	-708.85	1547.9	335.22	-822.3	1274	318.97
